<svg width="280" height="58" viewBox="0 0 280 58" fill="none" xmlns="http://www.w3.org/2000/svg">
<g filter="url(#filter0_d_1_2)">
<path d="M20.7188 49.6562C17.6146 49.6562 14.7292 49.2708 12.0625 48.5C9.39583 47.7292 6.80208 46.4479 4.28125 44.6562V34.1875H10.375L11.375 40.9688C12.4792 41.7604 13.8333 42.3958 15.4375 42.875C17.0625 43.3542 18.8229 43.5938 20.7188 43.5938C22.5729 43.5938 24.125 43.3333 25.375 42.8125C26.6458 42.2708 27.6146 41.5208 28.2812 40.5625C28.9479 39.6042 29.2812 38.4688 29.2812 37.1562C29.2812 35.9479 28.9896 34.875 28.4062 33.9375C27.8229 33 26.8542 32.1667 25.5 31.4375C24.1458 30.6875 22.3125 30 20 29.375C16.6042 28.4583 13.7604 27.375 11.4688 26.125C9.19792 24.875 7.47917 23.375 6.3125 21.625C5.16667 19.875 4.59375 17.8125 4.59375 15.4375C4.59375 13 5.25 10.8438 6.5625 8.96875C7.89583 7.09375 9.73958 5.61458 12.0938 4.53125C14.4479 3.44792 17.1667 2.89583 20.25 2.875C23.625 2.83333 26.6042 3.27083 29.1875 4.1875C31.7917 5.10417 33.9896 6.30208 35.7812 7.78125V17.5625H29.8125L28.6875 11.1875C27.8333 10.5833 26.7188 10.0729 25.3438 9.65625C23.9896 9.21875 22.3854 9 20.5312 9C18.9479 9 17.5521 9.26042 16.3438 9.78125C15.1354 10.3021 14.1875 11.0417 13.5 12C12.8125 12.9375 12.4688 14.0625 12.4688 15.375C12.4688 16.5208 12.7708 17.5208 13.375 18.375C13.9792 19.2292 14.9896 20.0104 16.4062 20.7188C17.8229 21.4062 19.7396 22.1042 22.1562 22.8125C27.0938 24.125 30.8333 25.9375 33.375 28.25C35.9167 30.5625 37.1875 33.5104 37.1875 37.0938C37.1875 39.6146 36.5 41.8229 35.125 43.7188C33.7708 45.5938 31.8542 47.0521 29.375 48.0938C26.9167 49.1354 24.0312 49.6562 20.7188 49.6562ZM58.685 49.6562C55.06 49.6562 52.2267 48.5104 50.185 46.2188C48.1642 43.9062 47.1538 40.3229 47.1538 35.4688V20.9688L43.3413 20.0312V15.1875H47.1538H55.0288V35.5312C55.0288 38.4479 55.4871 40.5 56.4038 41.6875C57.3413 42.8542 58.7788 43.4375 60.7163 43.4375C62.4246 43.4375 63.8725 43.1042 65.06 42.4375C66.2683 41.75 67.2267 40.7812 67.935 39.5312V20.9688L63.685 20.0312V15.1875H67.935H75.81V43.25L79.81 44.1875V49H68.8413L68.31 44.4062C67.2475 46.0938 65.8933 47.3958 64.2475 48.3125C62.6225 49.2083 60.7683 49.6562 58.685 49.6562ZM85.6825 49V44.1875L90.4013 43.25V6.03125L85.4013 5.09375V0.25H98.245V43.25L102.964 44.1875V49H85.6825ZM119.868 49V44.1875L124.836 43.25V9.53125H115.68L114.993 15.3438H109.086V3.5H148.493V15.3438H142.555L141.868 9.53125H132.711V43.25L137.68 44.1875V49H119.868ZM168.271 49.6562C165.084 49.6562 162.303 48.9479 159.928 47.5312C157.573 46.0938 155.74 44.1146 154.428 41.5938C153.136 39.0729 152.49 36.1875 152.49 32.9375V31.625C152.49 28.3333 153.125 25.4062 154.396 22.8438C155.688 20.2812 157.459 18.2604 159.709 16.7812C161.959 15.3021 164.521 14.5625 167.396 14.5625C170.459 14.5625 173.021 15.1771 175.084 16.4062C177.167 17.6354 178.74 19.3854 179.803 21.6562C180.865 23.9062 181.396 26.6146 181.396 29.7812V34.2812H160.646L160.584 34.4375C160.667 36.2083 161.032 37.7812 161.678 39.1562C162.344 40.5312 163.282 41.6146 164.49 42.4062C165.719 43.1979 167.209 43.5938 168.959 43.5938C170.792 43.5938 172.459 43.3438 173.959 42.8438C175.459 42.3438 176.844 41.6354 178.115 40.7188L180.584 45.6562C179.25 46.7812 177.553 47.7292 175.49 48.5C173.428 49.2708 171.021 49.6562 168.271 49.6562ZM160.771 28.75H173.865V27.9375C173.865 26.4583 173.636 25.1667 173.178 24.0625C172.74 22.9375 172.042 22.0625 171.084 21.4375C170.146 20.8125 168.948 20.5 167.49 20.5C166.219 20.5 165.105 20.8542 164.146 21.5625C163.188 22.2708 162.417 23.2396 161.834 24.4688C161.271 25.6771 160.886 27.0521 160.678 28.5938L160.771 28.75ZM188.769 49V44.1875L193.456 43.25V20.9688L188.519 20.0312V15.1875H200.706L201.113 19.4375L201.175 20.125C202.071 18.3333 203.165 16.9583 204.456 16C205.769 15.0417 207.3 14.5625 209.05 14.5625C209.633 14.5625 210.248 14.6146 210.894 14.7188C211.56 14.8229 212.102 14.9375 212.519 15.0625L211.613 22.3438L207.206 22.0938C205.769 22.0104 204.581 22.2917 203.644 22.9375C202.727 23.5833 201.956 24.4792 201.331 25.625V43.25L206.019 44.1875V49H188.769ZM218.204 49V44.1875L222.923 43.25V20.9688L217.954 20.0312V15.1875H230.141L230.516 19.625C231.62 18.0208 232.995 16.7812 234.641 15.9062C236.308 15.0104 238.235 14.5625 240.423 14.5625C242.631 14.5625 244.516 15.0625 246.079 16.0625C247.662 17.0417 248.86 18.5312 249.673 20.5312C250.714 18.6771 252.079 17.2188 253.766 16.1562C255.475 15.0938 257.475 14.5625 259.766 14.5625C263.162 14.5625 265.829 15.7188 267.766 18.0312C269.725 20.3438 270.704 23.8438 270.704 28.5312V43.25L275.423 44.1875V49H258.391V44.1875L262.829 43.25V28.5C262.829 25.6458 262.35 23.6458 261.391 22.5C260.433 21.3542 259.027 20.7812 257.173 20.7812C255.443 20.7812 254.016 21.3333 252.891 22.4375C251.787 23.5417 251.068 24.9479 250.735 26.6562V43.25L255.016 44.1875V49H238.61V44.1875L242.891 43.25V28.5C242.891 25.75 242.402 23.7812 241.423 22.5938C240.443 21.3854 239.027 20.7812 237.173 20.7812C235.631 20.7812 234.329 21.0938 233.266 21.7188C232.225 22.3438 231.391 23.2292 230.766 24.375V43.25L235.173 44.1875V49H218.204Z" fill="#2563EB"/>
</g>
<defs>
<filter id="filter0_d_1_2" x="0.28125" y="0.25" width="279.141" height="57.4062" filterUnits="userSpaceOnUse" color-interpolation-filters="sRGB">
<feFlood flood-opacity="0" result="BackgroundImageFix"/>
<feColorMatrix in="SourceAlpha" type="matrix" values="0 0 0 0 0 0 0 0 0 0 0 0 0 0 0 0 0 0 127 0" result="hardAlpha"/>
<feOffset dy="4"/>
<feGaussianBlur stdDeviation="2"/>
<feComposite in2="hardAlpha" operator="out"/>
<feColorMatrix type="matrix" values="0 0 0 0 0 0 0 0 0 0 0 0 0 0 0 0 0 0 0.25 0"/>
<feBlend mode="normal" in2="BackgroundImageFix" result="effect1_dropShadow_1_2"/>
<feBlend mode="normal" in="SourceGraphic" in2="effect1_dropShadow_1_2" result="shape"/>
</filter>
</defs>
</svg>
